<svg width="122" height="38" viewBox="0 0 122 38" fill="none" xmlns="http://www.w3.org/2000/svg">
    <path d="M14.71 2.512c.703 0 1.273-.562 1.273-1.256S15.413 0 14.71 0s-1.272.562-1.272 1.256.57 1.256 1.272 1.256zM19.242 2.512c.703 0 1.273-.562 1.273-1.256S19.945 0 19.242 0c-.702 0-1.272.562-1.272 1.256s.57 1.256 1.272 1.256zM23.695 2.512c.703 0 1.273-.562 1.273-1.256S24.398 0 23.695 0s-1.272.562-1.272 1.256.57 1.256 1.272 1.256zM5.725 6.674c.571 0 1.034-.457 1.034-1.021 0-.564-.463-1.02-1.034-1.02-.57 0-1.034.456-1.034 1.02 0 .564.463 1.02 1.034 1.02zM10.258 7.459c1.01 0 1.829-.809 1.829-1.806s-.82-1.806-1.83-1.806c-1.01 0-1.829.809-1.829 1.806s.82 1.806 1.83 1.806zM14.71 7.694c1.142 0 2.067-.914 2.067-2.041 0-1.127-.925-2.041-2.067-2.041-1.142 0-2.068.913-2.068 2.04 0 1.128.926 2.042 2.068 2.042zM19.242 7.694c1.142 0 2.067-.914 2.067-2.041 0-1.127-.925-2.041-2.067-2.041-1.142 0-2.067.913-2.067 2.04 0 1.128.925 2.042 2.067 2.042zM23.695 7.694c1.142 0 2.067-.914 2.067-2.041 0-1.127-.925-2.041-2.067-2.041-1.142 0-2.067.913-2.067 2.04 0 1.128.925 2.042 2.067 2.042zM28.228 7.459c1.01 0 1.829-.809 1.829-1.806s-.82-1.806-1.83-1.806c-1.01 0-1.829.809-1.829 1.806s.82 1.806 1.83 1.806zM32.68 6.674c.57 0 1.034-.457 1.034-1.021 0-.564-.463-1.02-1.034-1.02s-1.034.456-1.034 1.02c0 .564.463 1.02 1.034 1.02zM5.725 11.934c1.01 0 1.83-.809 1.83-1.806s-.82-1.806-1.83-1.806c-1.01 0-1.829.809-1.829 1.806s.82 1.806 1.83 1.806zM10.257 12.012a1.896 1.896 0 0 0 1.908-1.884c0-1.04-.854-1.884-1.908-1.884a1.896 1.896 0 0 0-1.908 1.884c0 1.04.854 1.884 1.908 1.884zM14.71 12.483c1.317 0 2.385-1.054 2.385-2.355 0-1.3-1.068-2.355-2.385-2.355-1.318 0-2.386 1.054-2.386 2.355 0 1.3 1.068 2.355 2.386 2.355z" fill="#fff"/>
    <path d="M19.242 12.483c1.317 0 2.385-1.054 2.385-2.355 0-1.3-1.068-2.355-2.385-2.355-1.317 0-2.385 1.054-2.385 2.355 0 1.3 1.068 2.355 2.385 2.355z" fill="#fff"/>
    <path d="M23.695 12.483c1.317 0 2.385-1.054 2.385-2.355 0-1.3-1.068-2.355-2.385-2.355-1.318 0-2.386 1.054-2.386 2.355 0 1.3 1.068 2.355 2.386 2.355zM28.227 12.012a1.896 1.896 0 0 0 1.908-1.884c0-1.04-.854-1.884-1.908-1.884a1.896 1.896 0 0 0-1.908 1.884c0 1.04.854 1.884 1.908 1.884zM32.68 11.541c.79 0 1.432-.632 1.432-1.413 0-.78-.641-1.413-1.432-1.413-.79 0-1.431.633-1.431 1.413s.64 1.413 1.431 1.413zM1.273 15.86c.702 0 1.272-.563 1.272-1.257s-.57-1.256-1.272-1.256C.57 13.347 0 13.91 0 14.603c0 .694.57 1.257 1.273 1.257zM5.725 16.645c1.142 0 2.067-.914 2.067-2.042 0-1.127-.925-2.041-2.067-2.041-1.142 0-2.067.914-2.067 2.041 0 1.128.925 2.042 2.067 2.042zM10.257 16.959c1.318 0 2.386-1.055 2.386-2.356 0-1.3-1.069-2.355-2.386-2.355-1.317 0-2.385 1.055-2.385 2.355 0 1.301 1.068 2.356 2.385 2.356z" fill="#fff"/>
    <path d="M14.71 17.587c1.669 0 3.021-1.336 3.021-2.984 0-1.647-1.352-2.983-3.021-2.983-1.669 0-3.022 1.336-3.022 2.983 0 1.648 1.353 2.984 3.022 2.984z" fill="#fff"/>
    <path d="M19.242 17.587c1.669 0 3.022-1.336 3.022-2.984 0-1.647-1.353-2.983-3.022-2.983-1.669 0-3.021 1.336-3.021 2.983 0 1.648 1.352 2.984 3.021 2.984z" fill="#fff"/>
    <path d="M23.695 17.587c1.668 0 3.021-1.336 3.021-2.984 0-1.647-1.353-2.983-3.021-2.983-1.669 0-3.022 1.336-3.022 2.983 0 1.648 1.353 2.984 3.022 2.984z" fill="#fff"/>
    <path d="M28.227 16.959c1.317 0 2.385-1.055 2.385-2.356 0-1.3-1.068-2.355-2.385-2.355-1.317 0-2.385 1.055-2.385 2.355 0 1.301 1.068 2.356 2.385 2.356zM32.68 16.645c1.142 0 2.067-.914 2.067-2.042 0-1.127-.925-2.041-2.067-2.041-1.142 0-2.067.914-2.067 2.041 0 1.128.925 2.042 2.067 2.042zM37.212 15.86c.703 0 1.273-.563 1.273-1.257s-.57-1.256-1.273-1.256c-.702 0-1.272.563-1.272 1.256 0 .694.57 1.257 1.272 1.257zM1.273 20.256c.702 0 1.272-.562 1.272-1.256s-.57-1.256-1.272-1.256C.57 17.744 0 18.306 0 19s.57 1.256 1.273 1.256zM5.725 21.041c1.142 0 2.067-.914 2.067-2.041 0-1.127-.925-2.041-2.067-2.041-1.142 0-2.067.914-2.067 2.041 0 1.127.925 2.041 2.067 2.041zM10.257 21.355c1.318 0 2.386-1.054 2.386-2.355 0-1.3-1.069-2.355-2.386-2.355-1.317 0-2.385 1.054-2.385 2.355 0 1.3 1.068 2.355 2.385 2.355z" fill="#fff"/>
    <path d="M14.71 21.983c1.669 0 3.021-1.335 3.021-2.983 0-1.648-1.352-2.983-3.021-2.983-1.669 0-3.022 1.335-3.022 2.983 0 1.648 1.353 2.983 3.022 2.983z" fill="#fff"/>
    <path d="M19.242 21.983c1.669 0 3.022-1.335 3.022-2.983 0-1.648-1.353-2.983-3.022-2.983-1.669 0-3.021 1.335-3.021 2.983 0 1.648 1.352 2.983 3.021 2.983z" fill="#fff"/>
    <path d="M23.695 21.983c1.668 0 3.021-1.335 3.021-2.983 0-1.648-1.353-2.983-3.021-2.983-1.669 0-3.022 1.335-3.022 2.983 0 1.648 1.353 2.983 3.022 2.983z" fill="#fff"/>
    <path d="M28.227 21.355c1.317 0 2.385-1.054 2.385-2.355 0-1.3-1.068-2.355-2.385-2.355-1.317 0-2.385 1.054-2.385 2.355 0 1.3 1.068 2.355 2.385 2.355zM32.68 21.041c1.142 0 2.067-.914 2.067-2.041 0-1.127-.925-2.041-2.067-2.041-1.142 0-2.067.914-2.067 2.041 0 1.127.925 2.041 2.067 2.041zM37.212 20.256c.703 0 1.273-.562 1.273-1.256s-.57-1.256-1.273-1.256c-.702 0-1.272.562-1.272 1.256s.57 1.256 1.272 1.256zM1.273 24.731c.702 0 1.272-.562 1.272-1.256s-.57-1.256-1.272-1.256C.57 22.219 0 22.781 0 23.475s.57 1.256 1.273 1.256zM5.725 25.517c1.142 0 2.067-.914 2.067-2.042 0-1.127-.925-2.041-2.067-2.041-1.142 0-2.067.914-2.067 2.041 0 1.128.925 2.041 2.067 2.041zM10.257 25.83c1.318 0 2.386-1.054 2.386-2.355 0-1.3-1.069-2.355-2.386-2.355-1.317 0-2.385 1.054-2.385 2.355s1.068 2.356 2.385 2.356z" fill="#fff"/>
    <path d="M14.71 26.459c1.669 0 3.021-1.336 3.021-2.984s-1.352-2.983-3.021-2.983c-1.669 0-3.022 1.335-3.022 2.983 0 1.648 1.353 2.984 3.022 2.984z" fill="#fff"/>
    <path d="M19.242 26.459c1.669 0 3.022-1.336 3.022-2.984s-1.353-2.983-3.022-2.983c-1.669 0-3.021 1.335-3.021 2.983 0 1.648 1.352 2.984 3.021 2.984z" fill="#fff"/>
    <path d="M23.695 26.459c1.668 0 3.021-1.336 3.021-2.984s-1.353-2.983-3.021-2.983c-1.669 0-3.022 1.335-3.022 2.983 0 1.648 1.353 2.984 3.022 2.984z" fill="#fff"/>
    <path d="M28.227 25.83c1.317 0 2.385-1.054 2.385-2.355 0-1.3-1.068-2.355-2.385-2.355-1.317 0-2.385 1.054-2.385 2.355s1.068 2.356 2.385 2.356zM32.68 25.517c1.142 0 2.067-.914 2.067-2.042 0-1.127-.925-2.041-2.067-2.041-1.142 0-2.067.914-2.067 2.041 0 1.128.925 2.041 2.067 2.041zM37.212 24.731c.703 0 1.273-.562 1.273-1.256s-.57-1.256-1.273-1.256c-.702 0-1.272.562-1.272 1.256s.57 1.256 1.272 1.256zM5.725 29.678c1.01 0 1.83-.809 1.83-1.806s-.82-1.806-1.83-1.806c-1.01 0-1.829.809-1.829 1.806s.82 1.806 1.83 1.806zM10.257 29.756a1.896 1.896 0 0 0 1.908-1.884c0-1.04-.854-1.884-1.908-1.884a1.896 1.896 0 0 0-1.908 1.884c0 1.04.854 1.884 1.908 1.884zM14.71 30.227c1.317 0 2.385-1.054 2.385-2.355 0-1.3-1.068-2.355-2.385-2.355-1.318 0-2.386 1.054-2.386 2.355 0 1.3 1.068 2.355 2.386 2.355z" fill="#fff"/>
    <path d="M19.242 30.227c1.317 0 2.385-1.054 2.385-2.355 0-1.3-1.068-2.355-2.385-2.355-1.317 0-2.385 1.054-2.385 2.355 0 1.3 1.068 2.355 2.385 2.355z" fill="#fff"/>
    <path d="M23.695 30.227c1.317 0 2.385-1.054 2.385-2.355 0-1.3-1.068-2.355-2.385-2.355-1.318 0-2.386 1.054-2.386 2.355 0 1.3 1.068 2.355 2.386 2.355zM28.227 29.756a1.896 1.896 0 0 0 1.908-1.884c0-1.04-.854-1.884-1.908-1.884a1.896 1.896 0 0 0-1.908 1.884c0 1.04.854 1.884 1.908 1.884zM32.68 29.678c1.01 0 1.83-.809 1.83-1.806s-.82-1.806-1.83-1.806c-1.01 0-1.83.809-1.83 1.806s.82 1.806 1.83 1.806zM5.725 33.368c.571 0 1.034-.457 1.034-1.02 0-.565-.463-1.021-1.034-1.021-.57 0-1.034.456-1.034 1.02 0 .564.463 1.02 1.034 1.02zM10.258 34.153c1.01 0 1.829-.809 1.829-1.806s-.82-1.806-1.83-1.806c-1.01 0-1.829.809-1.829 1.806s.82 1.806 1.83 1.806zM14.71 34.388c1.142 0 2.067-.914 2.067-2.041 0-1.127-.925-2.041-2.067-2.041-1.142 0-2.068.914-2.068 2.041 0 1.127.926 2.041 2.068 2.041zM19.242 34.388c1.142 0 2.067-.914 2.067-2.041 0-1.127-.925-2.041-2.067-2.041-1.142 0-2.067.914-2.067 2.041 0 1.127.925 2.041 2.067 2.041zM23.695 34.388c1.142 0 2.067-.914 2.067-2.041 0-1.127-.925-2.041-2.067-2.041-1.142 0-2.067.914-2.067 2.041 0 1.127.925 2.041 2.067 2.041zM28.228 34.153c1.01 0 1.829-.809 1.829-1.806s-.82-1.806-1.83-1.806c-1.01 0-1.829.809-1.829 1.806s.82 1.806 1.83 1.806zM32.68 33.368c.57 0 1.034-.457 1.034-1.02 0-.565-.463-1.021-1.034-1.021s-1.034.456-1.034 1.02c0 .564.463 1.02 1.034 1.02zM14.71 38c.703 0 1.273-.562 1.273-1.256s-.57-1.256-1.273-1.256-1.272.562-1.272 1.256S14.008 38 14.71 38zM19.242 38c.703 0 1.273-.562 1.273-1.256s-.57-1.256-1.273-1.256c-.702 0-1.272.562-1.272 1.256S18.54 38 19.242 38zM23.695 38c.703 0 1.273-.562 1.273-1.256s-.57-1.256-1.273-1.256-1.272.562-1.272 1.256S22.993 38 23.695 38zM28.227 13.975h-17.97v8.872h17.97v-8.872z" fill="#fff"/>
    <path d="M23.767 27.336V9.592h-8.984v17.744h8.984zM66.235.785h-2.466V3.22h2.466V.785zM61.066 6.83h-9.78v2.356H58.6l2.465 2.434v2.434L58.6 16.409h-9.78v-2.355h9.78V11.62h-7.315L48.82 9.186V6.83l2.465-2.434h9.78V6.83zM66.234 4.397v9.657h2.465v2.355h-2.465l-2.465-2.355V4.397h2.465zM80.864 4.397 83.25 6.83v12.012l-2.386 2.434h-8.587v-2.434h8.587V6.831H73.47v7.223h6.202v2.355H73.47l-2.386-2.355V6.83l2.386-2.434h7.394zM95.813 4.397l2.465 2.434v9.578h-2.465V6.831h-7.315v9.578h-2.465V6.831l2.465-2.434h7.315zM109.569 11.62h-6.123v2.434h7.315V6.83h-8.508V4.397h8.508l2.465 2.434v7.223l-2.465 2.355h-7.315l-2.465-2.355V11.62l2.465-2.434h6.123v2.434zM115.93.707v13.347l2.465 2.355h2.942v-2.355h-2.942V.707h-2.465zM51.286 22.847v2.355h8.508v2.434h-8.508v7.223h8.508v2.434h-8.508L48.82 34.86V22.847h2.465zM73.47 25.203v2.433h-8.508v9.657h-2.465v-9.657l2.465-2.433h8.508zM85.953 25.203l2.465 2.433v2.434l-2.465 2.434h-6.122V30.07h6.122v-2.434h-7.315v7.223h8.587v2.434h-8.587l-2.385-2.434v-7.223l2.385-2.433h7.315zM100.981 25.203l2.386 2.433v2.434l-2.386 2.434h-6.202V30.07h6.202v-2.434h-7.394v7.223h8.587v2.434h-8.588l-2.385-2.434v-7.223l2.386-2.433h7.394z" fill="#fff"/>
</svg>
